<?xml version="1.0" encoding="UTF-8"?>
<svg version="1.1" xmlns="http://www.w3.org/2000/svg" width="1008" height="299">
<path d="M0 0 C1.65 0.33 3.3 0.66 5 1 C5.16429001 2.03522293 5.32858002 3.07044586 5.49784851 4.13703918 C7.06088298 13.9778427 8.63417042 23.81696153 10.21705914 33.65459156 C11.03017289 38.71010584 11.83988412 43.76611249 12.64135742 48.82348633 C13.41751573 53.72025939 14.20321414 58.61542091 14.99506569 63.50967979 C15.29291559 65.36067929 15.58754232 67.21220094 15.8786068 69.06427956 C17.38568192 78.63978105 19.11360406 88.08787727 21.53442383 97.47924805 C21.73393237 98.26400167 21.93344091 99.04875528 22.13899517 99.85728931 C23.24727554 103.97281844 24.42865739 107.52282537 27 111 C29.75754339 112.06059361 31.20230037 112.30644303 33.97265625 111.2421875 C48.79405578 102.16086756 58.02369494 73.44967019 66.0799408 58.25566101 C69.83971202 51.16522628 73.64474521 44.10163773 77.5 37.0625 C82.05837835 28.73880342 86.55848994 20.38661606 91 12 C92.32 12 93.64 12 95 12 C95.09316355 17.42287032 94.79785028 22.61982363 94.0378418 27.99462891 C93.8841362 29.12843239 93.8841362 29.12843239 93.72732544 30.28514099 C93.38968347 32.76633672 93.0444969 35.2464189 92.69921875 37.7265625 C92.45931397 39.47840061 92.21988703 41.23030421 91.98091125 42.98226929 C91.35055992 47.59400178 90.71381664 52.20482944 90.07568359 56.81549072 C89.43794657 61.43116254 88.80614539 66.04764569 88.17382812 70.6640625 C87.9260775 72.47044439 87.67828525 74.27682057 87.43045044 76.08319092 C87.06564002 78.74215971 86.70098679 81.40114943 86.33691025 84.06021881 C85.23241023 92.12607883 84.12798949 100.19104698 82.93994141 108.24511719 C82.71719292 109.78152359 82.71719292 109.78152359 82.48994446 111.34896851 C82.23132897 113.12382162 81.96528887 114.89762172 81.68913269 116.66983032 C81.01790858 121.31810148 80.86114804 125.36726953 82 130 C85.55421162 132.36947442 86.80908704 132.52133338 91 132 C93.45825286 130.60485412 95.52707588 129.26103567 97.75 127.5625 C98.36270752 127.1094751 98.97541504 126.6564502 99.60668945 126.18969727 C104.16160852 122.77067716 108.41846491 119.08552617 112.5859375 115.203125 C115.08566555 112.92181979 117.67162301 110.80324583 120.3125 108.6875 C125.76871405 104.274613 130.88615451 99.55528972 136.015625 94.7734375 C140.60942351 90.49142233 145.3543136 86.39644031 150.140625 82.33203125 C156.77352306 76.68970048 163.30229925 70.97307986 169.64916992 65.0090332 C172.65952009 62.18935313 175.65252365 59.41570459 179 57 C181.3125 57.25 181.3125 57.25 183 58 C182.29130054 61.78795556 180.63160746 64.83084416 178.82421875 68.21484375 C178.50330765 68.81773727 178.18239655 69.4206308 177.85176086 70.04179382 C176.80196613 72.00972811 175.74518499 73.97379649 174.6875 75.9375 C174.32519287 76.61327087 173.96288574 77.28904175 173.58959961 77.98529053 C167.78040034 88.82005563 161.79948106 99.54336671 155.63378906 110.1796875 C149.70064342 120.42172253 143.81924057 130.69281828 138 141 C137.44876465 141.97469238 136.8975293 142.94938477 136.32958984 143.95361328 C134.88822786 146.5216834 133.47034765 149.10094042 132.0625 151.6875 C131.45220947 152.771521 131.45220947 152.771521 130.82958984 153.87744141 C128.31588341 158.58218617 126.40203708 163.57394051 127 169 C128.4123589 170.92418339 129.58325838 171.81255042 131.75317383 172.78857422 C141.27349621 173.68443418 153.30158979 167.52217461 161.8125 163.875 C163.00520508 163.37291016 164.19791016 162.87082031 165.42675781 162.35351562 C168.83949421 160.91497478 172.2457918 159.46172977 175.6506958 158.00476074 C178.19448561 156.91682154 180.73948983 155.83175744 183.28466797 154.74707031 C192.51298042 150.81294159 201.73663521 146.86800091 210.953125 142.90625 C211.73336533 142.57122467 212.51360565 142.23619934 213.31748962 141.89102173 C214.06511063 141.56926971 214.81273163 141.2475177 215.58300781 140.91601562 C216.30677612 140.6047876 217.03054443 140.29355957 217.77624512 139.97290039 C219.34197122 139.28788985 220.90111202 138.5877277 222.4552002 137.87670898 C223.6525177 137.3296228 223.6525177 137.3296228 224.87402344 136.77148438 C225.95124664 136.27183167 225.95124664 136.27183167 227.05023193 135.76208496 C229.44469284 134.82618767 231.45476815 134.67158299 234 135 C233.75805 140.57536948 230.23453646 143.2546612 226.4375 146.875 C225.84130859 147.46152344 225.24511719 148.04804688 224.63085938 148.65234375 C220.8758158 152.31481927 216.98287334 155.78861967 213.01977539 159.22314453 C209.60079017 162.2309258 206.30557613 165.36874136 203 168.5 C198.34985339 172.90492403 193.64959063 177.22443987 188.8125 181.42382812 C186.51585706 183.42101655 184.25615529 185.45726481 182 187.5 C179.06321535 190.15113994 176.11397458 192.78290171 173.125 195.375 C157.15666046 207.28651397 157.15666046 207.28651397 147.6875 222.9375 C147.66934834 226.02445635 147.66934834 226.02445635 149.65234375 227.59204102 C157.95716131 232.57268607 169.56535901 232.70297488 179 233.5625 C180.28148926 233.68544434 181.56297852 233.80838867 182.88330078 233.93505859 C193.41125738 234.92909379 203.954114 235.68918883 214.5078125 236.35375977 C220.37529397 236.72508226 226.17681041 237.18446731 232 238 C231.81945801 240.34701538 231.81945801 240.34701538 231 243 C228.81433105 244.37832642 228.81433105 244.37832642 225.88867188 245.44775391 C224.79663452 245.85812897 223.70459717 246.26850403 222.57946777 246.6913147 C221.38793091 247.11544647 220.19639404 247.53957825 218.96875 247.9765625 C217.74853149 248.42848969 216.52831299 248.88041687 215.27111816 249.34603882 C212.01932081 250.54992105 208.75902851 251.72893805 205.49645996 252.90325928 C202.20812914 254.09202455 198.92881711 255.3051329 195.6484375 256.515625 C185.80742804 260.13728275 175.96643973 263.73645362 166 267 C171.45475982 273.29395364 178.19327073 273.36724921 186 274 C189.35339737 274.19812529 192.70680526 274.31959404 196.06420898 274.42749023 C197.57367064 274.47933188 197.57367064 274.47933188 199.11362648 274.53222084 C202.59515086 274.6496154 206.07683777 274.76078969 209.55859375 274.87109375 C211.45271405 274.93243909 211.45271405 274.93243909 213.38509941 274.99502373 C265.62081834 276.68158756 317.87454934 277.82213893 370.12120438 279.11337948 C374.9423761 279.23253148 379.7635471 279.35171306 384.5847168 279.47094727 C385.26530055 279.48777839 385.94588431 279.50460951 386.64709181 279.52195067 C398.04420938 279.80386713 409.44127607 280.08778216 420.83831018 280.37305444 C428.40532817 280.56232142 435.97239931 280.74922937 443.53952324 280.93420994 C448.23858887 281.0495848 452.93760046 281.16705701 457.63660049 281.28507042 C459.79066892 281.3387494 461.94475853 281.39158681 464.09887123 281.44345856 C477.41257837 281.76460281 490.70239817 282.26687194 504 283 C504 284.32 504 285.64 504 287 C489.64255568 287.80246458 475.29853689 288.26537337 460.92236328 288.55664062 C458.68193041 288.60418095 456.4415029 288.65197403 454.20108032 288.69999695 C448.16582615 288.82863693 442.13050327 288.95372772 436.09516001 289.07810783 C429.70360549 289.21041779 423.31211922 289.34595091 416.92062378 289.4810791 C406.15626885 289.70821066 395.39187226 289.93324076 384.62744141 290.15673828 C373.68665055 290.38390159 362.74589356 290.61260487 351.80517578 290.84326172 C351.13603107 290.85736857 350.46688635 290.87147542 349.77746452 290.88600975 C347.08312604 290.94281496 344.38878762 290.99962293 341.69444931 291.05643657 C330.46289962 291.29322134 319.23132248 291.52870008 307.99974203 291.76402092 C305.49046296 291.81660765 302.98118464 291.86923059 300.47190714 291.92189217 C273.19905767 292.49421184 245.92598291 293.04917276 218.65185547 293.55737305 C217.53361397 293.57834612 216.41537247 293.59931919 215.26324487 293.62092781 C198.09850234 293.941869 180.9345768 294.24026972 163.76660156 294.29516602 C161.16915129 294.30711954 158.5727902 294.32630777 155.97558594 294.35668945 C152.06706177 294.40223784 148.15878361 294.41541291 144.25 294.42578125 C143.09419434 294.44328934 141.93838867 294.46079742 140.74755859 294.47883606 C134.56078037 294.46186542 130.60078249 294.33560908 126 290 C123.55586432 286.67693431 123.6682604 283.28255745 123.5078125 279.2421875 C123.44503764 277.88937155 123.38153319 276.53658931 123.31738281 275.18383789 C123.28664673 274.4798587 123.25591064 273.77587952 123.22424316 273.05056763 C122.64703458 260.39723964 121.71645264 248.17220727 118 236 C117.79391113 235.30487305 117.58782227 234.60974609 117.37548828 233.89355469 C107.98687647 202.95397082 87.49633208 176.68587171 59.11474609 160.95507812 C29.83953179 145.61934004 -2.8718134 142.94278127 -34.4609375 152.28515625 C-49.56080158 157.06061817 -62.73853059 165.07317319 -75 175 C-75.72574219 175.57234375 -76.45148438 176.1446875 -77.19921875 176.734375 C-82.94443556 181.47502541 -87.47467263 187.11132536 -92 193 C-92.59683594 193.76957031 -93.19367188 194.53914062 -93.80859375 195.33203125 C-111.35441068 219.11816182 -118.2501995 246.61285489 -118.53466797 275.73681641 C-118.7225431 286.44880417 -118.7225431 286.44880417 -122 291 C-124.88042818 293.56599693 -126.67067961 294.37540254 -130.51660156 294.37231445 C-131.43550171 294.37844757 -132.35440186 294.38458069 -133.30114746 294.39089966 C-134.32067505 294.38178558 -135.34020264 294.37267151 -136.390625 294.36328125 C-137.49651978 294.36464081 -138.60241455 294.36600037 -139.74182129 294.36740112 C-142.89598197 294.36614612 -146.04965801 294.3499884 -149.20372009 294.3264122 C-151.27957408 294.31229893 -153.35538507 294.30359681 -155.43127441 294.29653931 C-228.72455655 294.03942907 -302.02481981 292.26191349 -375.2990787 290.64220792 C-379.54178964 290.54846203 -383.78452031 290.45569835 -388.02727294 290.36385924 C-424.03391373 289.58408332 -460.01646477 288.51887034 -496 287 C-496 285.68 -496 284.36 -496 283 C-478.44480889 282.02627687 -460.88185297 281.59648532 -443.30672503 281.18941903 C-439.148354 281.09246329 -434.99005863 280.99236523 -430.83175659 280.89250183 C-423.74259169 280.72252826 -416.65339644 280.55388401 -409.56417847 280.38613892 C-391.11810583 279.94933657 -372.67229899 279.50153298 -354.2265625 279.05078125 C-353.31298029 279.0284734 -352.39939807 279.00616556 -351.45813155 278.98318172 C-318.44866852 278.1767177 -285.44221491 277.29622313 -252.4375 276.3125 C-250.37525468 276.25139139 -248.313009 276.190295 -246.25076294 276.12921143 C-229.14237461 275.62097841 -212.0341654 275.10062962 -194.9296875 274.47265625 C-193.4287278 274.41964104 -193.4287278 274.41964104 -191.89744568 274.36555481 C-176.6577001 274.37834891 -176.6577001 274.37834891 -163 269 C-163 268.34 -163 267.68 -163 267 C-174.95029614 262.37941338 -186.9093727 257.78330026 -198.89453125 253.25390625 C-199.73159103 252.93756226 -200.56865082 252.62121826 -201.43107605 252.29528809 C-205.61437896 250.71495441 -209.79841673 249.13658912 -213.9831543 247.56005859 C-215.53043919 246.97624492 -217.07772123 246.39242366 -218.625 245.80859375 C-219.34158279 245.53922501 -220.05816559 245.26985626 -220.79646301 244.99232483 C-225.77412945 243.11293528 -225.77412945 243.11293528 -228 242 C-228 240.68 -228 239.36 -228 238 C-227.09685059 237.92483154 -226.19370117 237.84966309 -225.26318359 237.7722168 C-182.97671215 237.96677873 -182.97671215 237.96677873 -145.06640625 226.7734375 C-142.77618071 224.1951691 -142.77618071 224.1951691 -142.71484375 221.18359375 C-144.62860737 216.44281153 -147.8927373 213.54136921 -151.5625 210.0625 C-152.59987305 209.04639648 -152.59987305 209.04639648 -153.65820312 208.00976562 C-157.72523017 204.05644856 -161.91512408 200.26809948 -166.20288086 196.55639648 C-168.49747123 194.56916464 -170.74984394 192.53730346 -173 190.5 C-175.98062721 187.81016569 -178.97245233 185.13689636 -182 182.5 C-191.74366541 174.00103436 -201.21963921 165.20916138 -210.70263672 156.42236328 C-217.40734748 150.21073094 -224.13300354 144.03302014 -231 138 C-230.67 136.68 -230.34 135.36 -230 134 C-224.96217744 134.69596892 -220.56673322 136.73532582 -215.93359375 138.7265625 C-215.03891891 139.10653885 -214.14424408 139.4865152 -213.22245789 139.87800598 C-211.29583014 140.69677019 -209.37008253 141.51760793 -207.44512939 142.34030151 C-204.41530385 143.63448101 -201.38268452 144.92188409 -198.34912109 146.20727539 C-190.42882302 149.56406621 -182.51163435 152.92812088 -174.59912109 156.30322266 C-170.52957309 158.03852043 -166.45610211 159.76427904 -162.37966919 161.4833374 C-160.90157447 162.1088583 -159.42500813 162.73800588 -157.95016479 163.37115479 C-142.43100358 170.94469243 -142.43100358 170.94469243 -126.19970703 172.21655273 C-123.8837236 171.06809823 -123.8837236 171.06809823 -122 169 C-121.40772645 163.93277072 -122.74812065 160.77910474 -125.0625 156.3125 C-125.40901611 155.640979 -125.75553223 154.96945801 -126.11254883 154.27758789 C-134.79167764 137.65856207 -144.18903625 121.39365009 -153.4296875 105.08300781 C-157.11223836 98.58157366 -160.77308849 92.06875186 -164.37939453 85.5246582 C-166.50558945 81.66846193 -168.66574991 77.8366757 -170.875 74.02734375 C-171.58039917 72.79721558 -171.58039917 72.79721558 -172.30004883 71.54223633 C-173.20402124 69.96732329 -174.11748841 68.3978103 -175.04174805 66.8347168 C-175.44433838 66.12871338 -175.84692871 65.42270996 -176.26171875 64.6953125 C-176.62225342 64.07672363 -176.98278809 63.45813477 -177.35424805 62.82080078 C-178.16691678 60.52935146 -177.7782599 59.26204223 -177 57 C-172.47024712 57.86135968 -169.97384362 60.51006686 -166.75 63.625 C-165.57746811 64.73245434 -164.40429439 65.83922954 -163.23046875 66.9453125 C-162.6689209 67.47801758 -162.10737305 68.01072266 -161.52880859 68.55957031 C-157.40322265 72.44666023 -153.06271999 76.09281316 -148.75390625 79.7734375 C-147.54416823 80.8071716 -146.33453567 81.84102914 -145.125 82.875 C-144.51841553 83.39344482 -143.91183105 83.91188965 -143.28686523 84.44604492 C-138.86804674 88.23233213 -134.52314791 92.09249542 -130.2109375 96 C-122.86627603 102.64393405 -115.31584646 109.06015039 -107.77832031 115.48339844 C-106.62522912 116.46678702 -105.47345288 117.45172039 -104.32324219 118.43847656 C-94.59595474 127.52498179 -94.59595474 127.52498179 -82.6875 132.5625 C-79.92310048 132.25017097 -79.92310048 132.25017097 -78.34834957 130.25725365 C-74.81538835 124.34277141 -77.17297245 115.39091518 -78.17749023 108.85693359 C-78.36527542 107.57656219 -78.36527542 107.57656219 -78.55685425 106.27032471 C-78.82704842 104.43444892 -79.10051391 102.59905208 -79.37698174 100.76411057 C-79.816695 97.84464955 -80.2473325 94.92397001 -80.67579651 92.00283813 C-81.58838476 85.79236501 -82.51227221 79.58360082 -83.4375 73.375 C-84.50736441 66.1926622 -85.57238682 59.00966127 -86.62675667 51.82503128 C-87.04726215 48.97523262 -87.4757236 46.12670944 -87.90464783 43.27816772 C-89.45149705 32.84904585 -90.56042577 22.53873259 -91 12 C-89.68 12 -88.36 12 -87 12 C-86.65855957 12.66306152 -86.31711914 13.32612305 -85.96533203 14.00927734 C-79.28686934 26.96124403 -72.53976062 39.85296457 -65.37792969 52.54443359 C-63.8142521 55.33101566 -62.26998801 58.12793286 -60.7265625 60.92578125 C-47.48935194 90.01695784 -47.48935194 90.01695784 -26.59375 111.984375 C-23.89356346 112.21879239 -23.89356346 112.21879239 -21.49980164 110.55877686 C-18.07196435 107.05007017 -17.43481772 103.78116053 -16.40942383 99.07519531 C-16.10062522 97.74900114 -16.10062522 97.74900114 -15.78558826 96.39601517 C-13.56863689 86.60366869 -11.97506641 76.71580998 -10.44921875 66.796875 C-10.14326708 64.85235426 -9.83651359 62.90795953 -9.52900696 60.96368408 C-8.73367036 55.92142441 -7.94900941 50.87756379 -7.16680908 45.83325195 C-6.36197919 40.65602203 -5.54672015 35.48043507 -4.73242188 30.3046875 C-3.14492298 20.20467777 -1.56873383 10.10294012 0 0 Z " fill="#002354" transform="translate(504,5)"/>
<path d="M0 0 C1.05030396 -0.00095673 2.10060791 -0.00191345 3.18273926 -0.00289917 C5.3845221 -0.00357557 7.586307 -0.00175923 9.78808594 0.00244141 C13.17387276 0.0078406 16.55952952 0.00245616 19.9453125 -0.00390625 C22.08854196 -0.00324622 24.23177134 -0.00196661 26.375 0 C27.39154663 -0.00202423 28.40809326 -0.00404846 29.45544434 -0.00613403 C30.85325134 -0.00140579 30.85325134 -0.00140579 32.27929688 0.00341797 C33.10264526 0.00421356 33.92599365 0.00500916 34.77429199 0.00582886 C36.65625 0.1328125 36.65625 0.1328125 37.65625 1.1328125 C37.75608058 3.12038278 37.78705753 5.1114877 37.7890625 7.1015625 C37.79099609 8.91720703 37.79099609 8.91720703 37.79296875 10.76953125 C37.78910156 12.04441406 37.78523438 13.31929687 37.78125 14.6328125 C37.78705078 16.54513672 37.78705078 16.54513672 37.79296875 18.49609375 C37.79167969 19.70652344 37.79039062 20.91695312 37.7890625 22.1640625 C37.78793457 23.28361328 37.78680664 24.40316406 37.78564453 25.55664062 C37.65625 28.1328125 37.65625 28.1328125 36.65625 29.1328125 C33.81289952 29.23268225 30.99927837 29.27159131 28.15625 29.2578125 C26.95935547 29.26361328 26.95935547 29.26361328 25.73828125 29.26953125 C19.78285767 29.25942017 19.78285767 29.25942017 18.65625 28.1328125 C18.1961375 24.80977775 17.95243788 21.47550432 17.65625 18.1328125 C14.02625 18.1328125 10.39625 18.1328125 6.65625 18.1328125 C6.65625 21.1028125 6.65625 24.0728125 6.65625 27.1328125 C7.43871094 27.26558594 8.22117187 27.39835937 9.02734375 27.53515625 C10.54521484 27.80005859 10.54521484 27.80005859 12.09375 28.0703125 C13.60775391 28.33134766 13.60775391 28.33134766 15.15234375 28.59765625 C17.65625 29.1328125 17.65625 29.1328125 18.65625 30.1328125 C18.75533783 31.92222222 18.78595379 33.71566758 18.78125 35.5078125 C18.78511719 36.97347656 18.78511719 36.97347656 18.7890625 38.46875 C18.65625 41.1328125 18.65625 41.1328125 17.65625 44.1328125 C12.21125 44.6278125 12.21125 44.6278125 6.65625 45.1328125 C6.65625 49.0928125 6.65625 53.0528125 6.65625 57.1328125 C10.28625 57.1328125 13.91625 57.1328125 17.65625 57.1328125 C17.800625 55.3384375 17.945 53.5440625 18.09375 51.6953125 C18.53125 46.2578125 18.53125 46.2578125 19.65625 45.1328125 C22.49960048 45.03294275 25.31322163 44.99403369 28.15625 45.0078125 C29.35314453 45.00201172 29.35314453 45.00201172 30.57421875 44.99609375 C36.52964233 45.00620483 36.52964233 45.00620483 37.65625 46.1328125 C37.75618532 48.1933656 37.78705906 50.2573384 37.7890625 52.3203125 C37.79099609 54.20363281 37.79099609 54.20363281 37.79296875 56.125 C37.79087402 56.78209961 37.7887793 57.43919922 37.78662109 58.11621094 C37.78127234 60.12442585 37.78656691 62.13241709 37.79296875 64.140625 C37.79167969 65.39617187 37.79039062 66.65171875 37.7890625 67.9453125 C37.78793457 69.10675781 37.78680664 70.26820313 37.78564453 71.46484375 C37.65625 74.1328125 37.65625 74.1328125 36.65625 75.1328125 C34.88178991 75.23175028 33.10338749 75.26080342 31.32617188 75.26220703 C30.18829224 75.26535919 29.0504126 75.26851135 27.87805176 75.27175903 C26.63954468 75.2697348 25.4010376 75.26771057 24.125 75.265625 C22.86361206 75.26658173 21.60222412 75.26753845 20.3026123 75.26852417 C17.62927862 75.26920625 14.95603563 75.26784779 12.28271484 75.26318359 C8.84918309 75.25748631 5.4157295 75.26076551 1.98220062 75.26675606 C-1.28270243 75.27123012 -4.54759593 75.26810133 -7.8125 75.265625 C-9.05100708 75.26764923 -10.28951416 75.26967346 -11.56555176 75.27175903 C-12.7034314 75.26860687 -13.84131104 75.26545471 -15.01367188 75.26220703 C-16.02103394 75.26141144 -17.028396 75.26061584 -18.06628418 75.25979614 C-20.34375 75.1328125 -20.34375 75.1328125 -21.34375 74.1328125 C-21.57510043 71.86909247 -21.70396005 69.59451074 -21.78125 67.3203125 C-21.84183594 66.07636719 -21.90242188 64.83242188 -21.96484375 63.55078125 C-21.75988281 62.42285156 -21.55492187 61.29492188 -21.34375 60.1328125 C-20.35737549 59.57891846 -19.37100098 59.02502441 -18.35473633 58.4543457 C-14.94598393 56.3515901 -14.94598393 56.3515901 -14.56738281 52.25390625 C-14.52789822 50.69319275 -14.52311674 49.1313446 -14.546875 47.5703125 C-14.54113464 46.74200928 -14.53539429 45.91370605 -14.52947998 45.06030273 C-14.52540359 43.31198384 -14.53643047 41.56357325 -14.56152344 39.81542969 C-14.59365762 37.1405022 -14.56183089 34.47161478 -14.5234375 31.796875 C-14.52740248 30.09634084 -14.53509011 28.39581044 -14.546875 26.6953125 C-14.52865692 25.49829712 -14.52865692 25.49829712 -14.5100708 24.27709961 C-14.50993354 21.72296234 -14.50993354 21.72296234 -15.34375 18.1328125 C-18.24635055 15.74162907 -18.24635055 15.74162907 -21.34375 14.1328125 C-21.96484375 11.15234375 -21.96484375 11.15234375 -21.78125 7.9453125 C-21.73871094 6.87925781 -21.69617188 5.81320313 -21.65234375 4.71484375 C-21.34375 2.1328125 -21.34375 2.1328125 -20.34375 1.1328125 C-13.54245431 0.1546738 -6.86263447 -0.01388666 0 0 Z " fill="#002354" transform="translate(452.34375,216.8671875)"/>
<path d="M0 0 C0.74805908 0.00829834 1.49611816 0.01659668 2.2668457 0.02514648 C8.94357029 0.22918777 14.51598244 1.21359957 19.31640625 6.19140625 C20.875 8.0625 20.875 8.0625 22.140625 9.8515625 C24.05433869 11.8962145 26.00205164 12.54851415 28.625 13.4375 C28.65184679 16.08340014 28.67176357 18.72903096 28.6875 21.375 C28.69587891 22.12974609 28.70425781 22.88449219 28.71289062 23.66210938 C28.72152441 25.58744313 28.67724333 27.51285581 28.625 29.4375 C27.1029041 30.9595959 25.74289918 30.56709521 23.625 30.5703125 C22.820625 30.57160156 22.01625 30.57289063 21.1875 30.57421875 C20.341875 30.57035156 19.49625 30.56648438 18.625 30.5625 C17.779375 30.56636719 16.93375 30.57023437 16.0625 30.57421875 C15.258125 30.57292969 14.45375 30.57164062 13.625 30.5703125 C12.8825 30.56918457 12.14 30.56805664 11.375 30.56689453 C9.625 30.4375 9.625 30.4375 8.625 29.4375 C8.38320596 27.14941198 8.24163401 24.86284185 8.1015625 22.56640625 C7.79626245 20.05277629 7.79626245 20.05277629 4.625 18.4375 C1.20482443 18.03791513 -2.24793041 17.8739652 -5.375 19.4375 C-6.29893164 21.29946946 -6.29893164 21.29946946 -6.375 23.4375 C-4.15603736 26.28835266 -1.81061187 27.19308255 1.5625 28.3125 C5.74749398 29.76863336 9.88950007 31.28110572 14 32.9375 C14.95648437 33.3190625 15.91296875 33.700625 16.8984375 34.09375 C21.53940512 36.38098906 25.42891868 39.41140412 27.89453125 44.05078125 C29.85205176 50.44674399 30.22762227 59.34306339 27.125 65.4375 C20.99257467 72.79641039 15.29572935 77.29976714 5.625 78.4375 C-3.44633126 78.88363105 -10.38747519 77.77748863 -17.6484375 72.0703125 C-19.375 70.4375 -19.375 70.4375 -20.7890625 68.4296875 C-22.29860946 66.23550464 -22.29860946 66.23550464 -25.0390625 65.1640625 C-25.80992187 64.59429687 -26.58078125 64.02453125 -27.375 63.4375 C-27.78482598 60.66658705 -27.89947757 58.55464022 -27.75 55.8125 C-27.73582031 55.11898437 -27.72164062 54.42546875 -27.70703125 53.7109375 C-27.55789424 48.62039424 -27.55789424 48.62039424 -26.375 47.4375 C-25.04456375 47.3391279 -23.70906656 47.30671408 -22.375 47.3046875 C-21.570625 47.30339844 -20.76625 47.30210937 -19.9375 47.30078125 C-19.091875 47.30464844 -18.24625 47.30851562 -17.375 47.3125 C-16.1065625 47.30669922 -16.1065625 47.30669922 -14.8125 47.30078125 C-14.008125 47.30207031 -13.20375 47.30335938 -12.375 47.3046875 C-11.6325 47.30581543 -10.89 47.30694336 -10.125 47.30810547 C-8.375 47.4375 -8.375 47.4375 -7.375 48.4375 C-6.84407865 50.71733876 -6.41182029 53.00944084 -5.97265625 55.30859375 C-5.50817957 57.6307658 -5.50817957 57.6307658 -3.375 59.4375 C2.50836903 59.94716413 2.50836903 59.94716413 7.625 57.4375 C8.29185938 54.98077108 8.29185938 54.98077108 7.625 52.4375 C3.8168111 49.66204029 -0.21167731 48.42490568 -4.6875 47.0625 C-12.73012968 44.49510142 -19.62408875 41.74659424 -24.375 34.4375 C-27.34584078 28.0560911 -27.40914158 20.91985247 -25.375 14.1875 C-22.80252112 8.27807917 -17.71128958 4.64223728 -12.1328125 1.765625 C-7.88590147 0.26463773 -4.45867661 -0.06367389 0 0 Z " fill="#002354" transform="translate(546.375,214.5625)"/>
<path d="M0 0 C4.9135673 0.52225938 8.13755261 1.98232896 12.32421875 4.5703125 C12.91112991 4.9296286 13.49804108 5.2889447 14.10273743 5.65914917 C15.97004216 6.80544242 17.82870233 7.96497481 19.6875 9.125 C20.91547996 9.88107902 22.14399189 10.63629475 23.37304688 11.390625 C25.78516194 12.87279154 28.18672122 14.3702844 30.58251953 15.87866211 C32.75933756 17.24495137 34.94333911 18.53730196 37.17919922 19.81079102 C43.60885356 23.55810587 46.9789886 26.76604829 49.75 33.6875 C50.0903125 34.43322266 50.430625 35.17894531 50.78125 35.94726562 C52.45224663 39.78576403 53.35028303 41.89962536 52 46 C43.48444039 46.22722586 34.94657123 45.26688396 28.1875 39.671875 C25.63476687 36.87982314 23.30337038 34.00028758 21 31 C19.54270939 29.26995446 18.08438076 27.54078276 16.625 25.8125 C15.07247505 23.88368983 13.53210748 21.94506787 12 20 C11.48518066 19.34708984 10.97036133 18.69417969 10.43994141 18.02148438 C8.75968684 15.87806697 7.09644196 13.72244341 5.4375 11.5625 C4.90012207 10.87583252 4.36274414 10.18916504 3.80908203 9.48168945 C3.06634033 8.50268677 3.06634033 8.50268677 2.30859375 7.50390625 C1.86314209 6.92455322 1.41769043 6.3452002 0.95874023 5.74829102 C0 4 0 4 0 0 Z " fill="#002354" transform="translate(324,126)"/>
<path d="M0 0 C2.21776445 0.02991829 4.43454985 0.13508521 6.6484375 0.26953125 C7.3284935 0.30946198 8.0085495 0.3493927 8.70921326 0.39053345 C14.71876234 0.75051339 20.72515615 1.16582399 26.73057556 1.58866882 C30.8197931 1.87225576 34.89784385 2.08101003 38.99609375 2.1953125 C48.29611126 2.5803278 53.83752933 4.10530906 60.44067383 10.92553711 C61.65132728 12.26215451 62.82737336 13.62989978 64 15 C64.60328125 15.56589844 65.2065625 16.13179687 65.828125 16.71484375 C66.21484375 17.13894531 66.6015625 17.56304687 67 18 C66.74853421 20.13745922 66.54074221 21.45925779 65 23 C62.67427397 23.38282372 60.33882138 23.70764733 58 24 C56.43765625 24.22236328 56.43765625 24.22236328 54.84375 24.44921875 C42.80148582 25.30737075 33.59504585 20.48816956 22.95849609 15.39013672 C20.03507095 14.01647912 17.08754778 12.73197654 14.11328125 11.47265625 C13.18862061 11.0768335 12.26395996 10.68101074 11.3112793 10.27319336 C9.55451456 9.52230137 7.79435792 8.77928344 6.03051758 8.04516602 C5.2495874 7.70283936 4.46865723 7.3605127 3.6640625 7.0078125 C2.63466553 6.56912842 2.63466553 6.56912842 1.58447266 6.12158203 C0 5 0 5 -0.79150391 2.93701172 C-0.86030762 2.29779785 -0.92911133 1.65858398 -1 1 C-0.67 0.67 -0.34 0.34 0 0 Z " fill="#002354" transform="translate(288,207)"/>
<path d="M0 0 C-0.5106179 4.65513315 -2.36336576 7.18558376 -5.25 10.8125 C-5.68602539 11.36437988 -6.12205078 11.91625977 -6.57128906 12.48486328 C-8.03691223 14.33199912 -9.5172512 16.16658857 -11 18 C-11.54398438 18.67691895 -12.08796875 19.35383789 -12.6484375 20.05126953 C-19.22586123 28.23326639 -19.22586123 28.23326639 -22.47631836 32.14331055 C-23.49598504 33.38583019 -24.49176262 34.6483258 -25.46313477 35.92895508 C-29.0667157 40.52140049 -31.83764298 42.23518932 -37.4375 43.9375 C-38.69433594 44.33839844 -39.95117188 44.73929688 -41.24609375 45.15234375 C-44.96708073 45.99256662 -48.20036863 46.16179075 -52 46 C-53.60863855 41.13354746 -51.74713174 38.14169425 -49.6875 33.6875 C-49.38521484 32.95337891 -49.08292969 32.21925781 -48.77148438 31.46289062 C-45.72240681 24.8162554 -41.14923307 21.70888407 -35 18 C-34.02844971 17.40872314 -33.05689941 16.81744629 -32.0559082 16.20825195 C-28.99204458 14.37811262 -25.90739715 12.58959498 -22.8125 10.8125 C-21.25112305 9.90854492 -21.25112305 9.90854492 -19.65820312 8.98632812 C-17.65838154 7.82960593 -15.65606599 6.67718106 -13.65087891 5.52978516 C-12.03858206 4.59935119 -10.43421882 3.6547363 -8.84521484 2.68505859 C-5.49574722 0.65575397 -4.04848833 0 0 0 Z " fill="#002354" transform="translate(689,126)"/>
<path d="M0 0 C-0.17578125 2.30712891 -0.17578125 2.30712891 -1 5 C-3.23046875 6.64990234 -3.23046875 6.64990234 -6.1875 8.0859375 C-7.27047363 8.62138184 -8.35344727 9.15682617 -9.46923828 9.70849609 C-10.63438965 10.25844238 -11.79954102 10.80838867 -13 11.375 C-14.77673096 12.22892334 -14.77673096 12.22892334 -16.58935547 13.10009766 C-18.9646528 14.23299141 -21.34466807 15.35605077 -23.72949219 16.46875 C-26.48599284 17.75934212 -29.21700211 19.08893185 -31.9453125 20.4375 C-42.61491876 25.50771239 -51.92741645 26.49018679 -63.45703125 22.93359375 C-64.29621094 22.62550781 -65.13539063 22.31742188 -66 22 C-65.61986203 17.03105374 -63.08772631 14.57545364 -59.625 11.3125 C-58.8825 10.58450195 -58.8825 10.58450195 -58.125 9.84179688 C-54.40304795 6.23428988 -51.74214472 3.84344227 -46.51611328 3.40576172 C-45.61152374 3.32582977 -44.7069342 3.24589783 -43.77493286 3.1635437 C-42.79990814 3.08637115 -41.82488342 3.00919861 -40.8203125 2.9296875 C-39.31294022 2.80075607 -39.31294022 2.80075607 -37.77511597 2.66921997 C-35.64875324 2.48885194 -33.52203817 2.31259769 -31.39501953 2.14013672 C-28.14409773 1.87654846 -24.89430584 1.60156043 -21.64453125 1.32421875 C-19.57818095 1.1503754 -17.51177626 0.97717702 -15.4453125 0.8046875 C-14.47433624 0.72346649 -13.50335999 0.64224548 -12.50296021 0.55856323 C-11.59206635 0.48493561 -10.68117249 0.41130798 -9.74267578 0.33544922 C-8.9456424 0.27042206 -8.14860901 0.2053949 -7.3274231 0.13839722 C-4.87961182 -0.00715873 -2.45155175 -0.02332483 0 0 Z " fill="#002354" transform="translate(724,207)"/>
<path d="M0 0 C2.62769849 0.1016237 4.43664846 0.50513059 6.43798828 2.26318359 C8.03856849 4.02833423 9.55799384 5.83973273 11.0625 7.6875 C12.20955584 9.05605628 13.35669322 10.42454423 14.50390625 11.79296875 C15.37233154 12.84170166 15.37233154 12.84170166 16.25830078 13.91162109 C17.92992208 15.9159733 19.62715736 17.89397083 21.33984375 19.86328125 C21.87150146 20.47534424 22.40315918 21.08740723 22.95092773 21.71801758 C23.95089317 22.86833243 24.95165013 24.01795992 25.95336914 25.16674805 C35.21364142 35.91972094 37.57147953 44.64951411 37 59 C34.65203672 59.83885941 33.48914299 60.21163159 31.15649414 59.20239258 C29.10253417 57.76689831 27.07232727 56.30933581 25.0625 54.8125 C24.35931641 54.33619141 23.65613281 53.85988281 22.93164062 53.36914062 C16.59824992 48.69774561 14.59185641 43.25049265 12 36 C11.24424147 34.07257382 10.47058207 32.1529339 9.69566345 30.23313904 C8.61097903 27.53735605 7.55333163 24.83130243 6.49584961 22.12475586 C5.95149774 20.73600919 5.40357337 19.34865815 4.85229492 17.96264648 C4.04310345 15.92742175 3.24501871 13.88814837 2.44921875 11.84765625 C1.97830811 10.65148682 1.50739746 9.45531738 1.0222168 8.22290039 C0.0759267 5.23938579 -0.2286339 3.09476215 0 0 Z " fill="#002354" transform="translate(385,72)"/>
<path d="M0 0 C-0.52698968 5.90145773 -1.78327184 10.75867623 -4.01953125 16.2265625 C-4.31937424 16.97787445 -4.61921722 17.7291864 -4.92814636 18.50326538 C-5.55991046 20.07986352 -6.19631678 21.65460873 -6.8371582 23.22753906 C-7.81080768 25.62084015 -8.76674773 28.02066594 -9.72070312 30.421875 C-10.34010592 31.96135631 -10.960515 33.50043321 -11.58203125 35.0390625 C-11.86448196 35.74858063 -12.14693268 36.45809875 -12.4379425 37.18911743 C-15.14034058 43.77472234 -18.3393116 48.86481191 -24.0625 53.25 C-24.91972656 53.91515625 -25.77695312 54.5803125 -26.66015625 55.265625 C-30.42877218 58.05905651 -32.29880935 59.25411841 -37 59 C-37.05493545 56.85446536 -37.09320737 54.70850234 -37.125 52.5625 C-37.14820313 51.36753906 -37.17140625 50.17257813 -37.1953125 48.94140625 C-36.78595458 40.68056345 -35.34195531 35.35445721 -29.625 29.3125 C-28.5398841 28.10850579 -27.45526327 26.90406523 -26.37109375 25.69921875 C-25.81405762 25.09126465 -25.25702148 24.48331055 -24.68310547 23.85693359 C-21.94795381 20.83930036 -19.32458591 17.72816966 -16.6875 14.625 C-15.69192856 13.46830024 -14.69585288 12.31203425 -13.69921875 11.15625 C-12.04916168 9.23760573 -10.43264934 7.30486766 -8.83203125 5.34375 C-8.22746094 4.6115625 -7.62289062 3.879375 -7 3.125 C-6.505 2.50882812 -6.01 1.89265625 -5.5 1.2578125 C-4 0 -4 0 0 0 Z " fill="#002354" transform="translate(628,72)"/>
<path d="M0 0 C1.32 0 2.64 0 4 0 C5.33604248 8.27388054 5.52129857 16.54243765 5.6796875 24.91088867 C5.72610121 26.82625984 5.79403225 28.7412455 5.88476562 30.6550293 C6.54330308 44.8442999 4.37845901 55.28743895 -4.5682373 66.67001343 C-6 68 -6 68 -8.86035156 68.47583008 C-9.56643555 68.31880615 -10.27251953 68.16178223 -11 68 C-15.00090123 57.42618962 -16.20993727 47.58751363 -12.48046875 36.85546875 C-12.09161247 35.70163445 -12.09161247 35.70163445 -11.69490051 34.52449036 C-10.86755635 32.07586241 -10.02780867 29.63170533 -9.1875 27.1875 C-8.63393037 25.55692395 -8.08118801 23.9260668 -7.52929688 22.29492188 C-6.50536988 19.27190206 -5.47645021 16.25068262 -4.44213867 13.23120117 C-2.93648372 8.82908267 -1.4653494 4.41567505 0 0 Z " fill="#002354" transform="translate(544,42)"/>
<path d="M0 0 C1.32 0 2.64 0 4 0 C5.95777094 5.58654935 7.91494739 11.17330648 9.87158203 16.76025391 C10.53678462 18.6593992 11.20214737 20.5584884 11.86767578 22.45751953 C12.82627167 25.19288508 13.78428444 27.92845426 14.7421875 30.6640625 C15.03809784 31.50804596 15.33400818 32.35202942 15.6388855 33.22158813 C16.18736961 34.78864335 16.7341896 36.35628247 17.2789917 37.92462158 C17.90952242 39.73956581 18.54628252 41.55234345 19.18408203 43.36474609 C21.72202346 51.56179571 18.90533098 59.92502584 17 68 C14.72265625 68.25390625 14.72265625 68.25390625 12 68 C9.16490086 65.40066794 7.14611111 62.18093428 5 59 C4.57074219 58.38125 4.14148438 57.7625 3.69921875 57.125 C-0.79550762 50.06419349 -0.14287439 41.66401911 -0.09765625 33.59375 C-0.0962413 32.6284436 -0.09482635 31.66313721 -0.09336853 30.6685791 C-0.0878108 27.61235335 -0.0752663 24.55620327 -0.0625 21.5 C-0.05747953 19.41666773 -0.05291758 17.3333343 -0.04882812 15.25 C-0.03785524 10.16663791 -0.02062011 5.08333174 0 0 Z " fill="#002354" transform="translate(464,42)"/>
<path d="M0 0 C2.73865602 2.19092482 3.78184151 3.72513631 4.375 7.19140625 C4.58312725 11.13931993 4.54151639 13.27797814 2.125 16.5 C-1.73560564 19.22513339 -4.24596513 19.47540349 -9 19 C-13.35212994 16.62611094 -13.35212994 16.62611094 -15 14 C-15.73367776 10.53323259 -15.69770842 7.47095283 -15 4 C-11.17832237 -1.40306148 -6.1049634 -1.74427526 0 0 Z " fill="#002354" transform="translate(592,273)"/>
<path d="M0 0 C3.00202437 2.16425013 3.71393732 3.57484088 4.43359375 7.16015625 C4.80603548 11.7130664 4.44409329 13.46925437 1.4375 17.0625 C-2.5310151 19.29929942 -4.51737197 19.65201862 -9 19 C-13.6 16.8 -13.6 16.8 -15 14 C-15.47516954 9.5287325 -15.72410462 5.44820924 -13.6875 1.375 C-9.25367025 -0.89347104 -4.85812143 -0.82565948 0 0 Z " fill="#002354" transform="translate(511,273)"/>
</svg>
